# xmcd
#
# Track frame offsets:
#	182
#	15302
#	27727
#	42477
#	56127
#	78437
#	97367
#	116700
#	140440
#	156057
#
# Disc length: 2342 seconds
#
# Revision: 0
# Processed by: cddbd v1.4PL0 Copyright (c) Steve Scherf et al.
# Submitted via: dBpowerAMP V4.0
#
DISCID=8909240a
DTITLE=Edith Piaf - The Best of Carnegie Hall
DYEAR=2001
DGENRE=Blues
TTITLE0=La Fête Continue
TTITLE1=Je T'ai Dans la Peau
TTITLE2=Padam Padam
TTITLE3=Heureuse
TTITLE4=A Merry Go Round
TTITLE5=L'accordéoniste
TTITLE6=Les Amants D'un Jour
TTITLE7=Monsieur Saint Pierre
TTITLE8=Hymne À L'amour
TTITLE9=La Vie En Rose
EXTD=
EXTT0=
EXTT1=
EXTT2=
EXTT3=
EXTT4=
EXTT5=
EXTT6=
EXTT7=
EXTT8=
EXTT9=
PLAYORDER=
